<svg width="89" height="31" viewBox="0 0 89 31" fill="none" xmlns="http://www.w3.org/2000/svg">
<path d="M7.28 13.44L5.136 8.96H5.04V24H0.464V1.664H5.776L11.888 12.224L14.032 16.704H14.128V1.664H18.704V24H13.392L7.28 13.44ZM30.3723 24.384C29.0923 24.384 27.9509 24.1813 26.9483 23.776C25.9456 23.3493 25.0923 22.7627 24.3883 22.016C23.7056 21.248 23.1829 20.32 22.8203 19.232C22.4789 18.144 22.3083 16.928 22.3083 15.584C22.3083 14.2613 22.4789 13.0667 22.8203 12C23.1616 10.912 23.6629 9.984 24.3243 9.216C25.0069 8.448 25.8389 7.86133 26.8203 7.456C27.8016 7.02933 28.9216 6.816 30.1803 6.816C31.5669 6.816 32.7509 7.05067 33.7323 7.52C34.7349 7.98933 35.5456 8.61867 36.1643 9.408C36.8043 10.1973 37.2629 11.1147 37.5403 12.16C37.8389 13.184 37.9883 14.2613 37.9883 15.392V16.8H27.2043V17.056C27.2043 18.1653 27.5029 19.0507 28.1003 19.712C28.6976 20.352 29.6363 20.672 30.9163 20.672C31.8976 20.672 32.6976 20.48 33.3163 20.096C33.9349 19.6907 34.5109 19.2107 35.0443 18.656L37.4123 21.6C36.6656 22.4747 35.6843 23.1573 34.4683 23.648C33.2736 24.1387 31.9083 24.384 30.3723 24.384ZM30.2763 10.304C29.3163 10.304 28.5589 10.624 28.0043 11.264C27.4709 11.8827 27.2043 12.7147 27.2043 13.76V14.016H33.0923V13.728C33.0923 12.704 32.8576 11.8827 32.3883 11.264C31.9403 10.624 31.2363 10.304 30.2763 10.304ZM41.333 24V7.2H46.069V10.848H46.229C46.3143 10.3787 46.4637 9.93067 46.677 9.504C46.8903 9.056 47.1677 8.66133 47.509 8.32C47.8717 7.97867 48.2983 7.712 48.789 7.52C49.2797 7.30667 49.8557 7.2 50.517 7.2H51.349V11.616H50.165C48.7783 11.616 47.7437 11.7973 47.061 12.16C46.3997 12.5227 46.069 13.1947 46.069 14.176V24H41.333ZM64.4495 21.184H64.2895C64.1615 21.632 63.9588 22.0587 63.6815 22.464C63.4042 22.848 63.0628 23.1893 62.6575 23.488C62.2735 23.7653 61.8255 23.9787 61.3135 24.128C60.8228 24.2987 60.3108 24.384 59.7775 24.384C57.6442 24.384 56.0335 23.6373 54.9455 22.144C53.8575 20.6293 53.3135 18.4427 53.3135 15.584C53.3135 12.7253 53.8575 10.5493 54.9455 9.056C56.0335 7.56267 57.6442 6.816 59.7775 6.816C60.8655 6.816 61.8255 7.11467 62.6575 7.712C63.5108 8.30933 64.0548 9.07733 64.2895 10.016H64.4495V0.32H69.1855V24H64.4495V21.184ZM61.3455 20.544C62.2415 20.544 62.9775 20.3307 63.5535 19.904C64.1508 19.456 64.4495 18.848 64.4495 18.08V13.12C64.4495 12.352 64.1508 11.7547 63.5535 11.328C62.9775 10.88 62.2415 10.656 61.3455 10.656C60.4495 10.656 59.7028 10.976 59.1055 11.616C58.5295 12.2347 58.2415 13.0773 58.2415 14.144V17.056C58.2415 18.1227 58.5295 18.976 59.1055 19.616C59.7028 20.2347 60.4495 20.544 61.3455 20.544ZM83.8863 7.2H88.3022L81.8383 26.592C81.4116 27.8933 80.8036 28.8533 80.0143 29.472C79.2463 30.0907 78.1369 30.4 76.6863 30.4H73.7423V26.72H76.9103L77.4863 24.864L71.5983 7.2H76.3023L78.7663 15.04L79.9823 19.904H80.1743L81.4223 15.04L83.8863 7.2Z" fill="#0F0F0F"/>
</svg>
